<?xml version="1.0" encoding="utf-8"?>
<?xml-stylesheet type="text/xsl" href="rss1.xsl"?>
<rss version="2.0" xmlns:atom="http://www.w3.org/2005/Atom" xmlns:content="http://purl.org/rss/1.0/modules/content/" xmlns:dc="http://purl.org/dc/elements/1.1/" xmlns:media="http://search.yahoo.com/mrss/">
<channel>
 <title>Getty</title>
 <link>http://www.gettyimg.com/</link>
 <atom:link href="http://www.gettyimg.com/" rel="self" type="application/rss+xml" />

 
                <item>
                <title><![CDATA[【PRORES HD】Rudimental, Charlotte Plank, Vibe Chemistry – Dancing Is Healing |ProRes 4K|]]></title>
                <link><![CDATA[https://sharemania.us/threads/rudimental-charlotte-plank-vibe-chemistry-%E2%80%93-dancing-is-healing-prores-4k.228605/]]></link>
                <description><![CDATA[<article>
<blockquote class="messageText SelectQuoteContainer ugc baseHtml">
<div style="text-align: center"><img src="https://i.imgur.com/jEjowLL.gif" class="bbCodeImage LbImage" alt="[​IMG]" data-url="https://i.imgur.com/jEjowLL.gif" style=""><br>
<br>
​</div>
<div class="ToggleTriggerAnchor bbCodeSpoilerContainer">
<button type="button" class="button bbCodeSpoilerButton ToggleTrigger Tooltip JsOnly" data-target="> .SpoilerTarget"><span>Spoiler: <span class="SpoilerTitle">ProRes</span></span></button>
<div class="SpoilerTarget bbCodeSpoilerText">
<div class="bbCodeBlock bbCodeCode">
<div class="type">Code:</div>
<pre>Format                                   : MPEG-4
Format profile                           : QuickTime
Codec ID                                 : qt   2005.03 (qt  )
File size                                : 11.6 GiB
Duration                                 : 3 min 6 s
Overall bit rate mode                    : Variable
Overall bit rate                         : 537 Mb/s
Encoded date                             : UTC 2023-07-01 10:18:18
Tagged date                              : UTC 2023-07-01 10:21:35
Writing library                          : Apple QuickTime
TIM                                      : 01:18:15:17
TSC                                      : 25
TSZ                                      : 1

Video
ID                                       : 1
Format                                   : ProRes
Format version                           : Version 0
Format profile                           : 422
Codec ID                                 : apcn
Duration                                 : 3 min 6 s
Bit rate mode                            : Variable
Bit rate                                 : 536 Mb/s
Width                                    : 4 096 pixels
Height                                   : 2 480 pixels
Display aspect ratio                     : 5:3
Frame rate mode                          : Constant
Frame rate                               : 25.000 FPS
Color space                              : YUV
Chroma subsampling                       : 4:2:2
Scan type                                : Progressive
Bits/(Pixel*Frame)                       : 2.110
Stream size                              : 11.6 GiB (100%)
Writing library                          : Apple
Language                                 : English
Encoded date                             : UTC 2023-07-01 10:18:18
Tagged date                              : UTC 2023-07-01 10:18:18
Color primaries                          : BT.709
Transfer characteristics                 : BT.709
Matrix coefficients                      : BT.709

Audio
ID                                       : 2
Format                                   : PCM
Format settings                          : Little / Signed
Codec ID                                 : sowt
Duration                                 : 3 min 6 s
Bit rate mode                            : Constant
Bit rate                                 : 1 536 kb/s
Channel(s)                               : 2 channels
Channel layout                           : L R
Sampling rate                            : 48.0 kHz
Bit depth                                : 16 bits
Stream size                              : 34.1 MiB (0%)
Language                                 : English
Encoded date                             : UTC 2023-07-01 10:18:18
Tagged date                              : UTC 2023-07-01 10:18:18

Other
ID                                       : 3
Type                                     : Time code
Format                                   : QuickTime TC
Duration                                 : 3 min 6 s
Frame rate                               : 25.000 FPS
Time code of first frame                 : 01:18:15:17
Time code, striped                       : Yes
Title                                    : LR002
Language                                 : English
Encoded date                             : UTC 2023-07-01 10:18:18
Tagged date                              : UTC 2023-07-01 10:18:18</pre>
</div><div style="text-align: center">​</div></div>
</div><div style="text-align: center"><br>
<br>
<div class="bbCodeBlock bbCodeVfcHH HiddenContent">
<div class="attribution type">Hidden Content:</div>
<blockquote>You must reply before you can see the hidden data contained here.</blockquote>
</div></div>
<div class="messageTextEndMarker">&nbsp;</div>
</blockquote>
</article>]]></description>
                <author><![CDATA[fstambuk]]></author>
                </item>

                </channel></rss>